<?xml version="1.0" encoding="UTF-8"?> <svg xmlns="http://www.w3.org/2000/svg" width="101" height="68" viewBox="0 0 101 68"><defs><style> .cls-1{opacity:.743}.cls-2{fill:#005882}.cls-3{fill:#fff} </style></defs><g id="bbb-blue" class="cls-1"><path id="XMLID_1_" d="M92.314 68H8.723A8.755 8.755 0 0 1 0 59.263V8.737A8.755 8.755 0 0 1 8.723 0h83.554A8.755 8.755 0 0 1 101 8.737v50.526A8.7 8.7 0 0 1 92.314 68z" class="cls-2"></path><path id="XMLID_80_" d="M0 0h.5v60H0z" class="cls-3" transform="translate(47 6)"></path><g id="XMLID_79_" transform="translate(11 9)"><path id="XMLID_78_" d="M2.642 0L.6 2.8a3.775 3.775 0 0 0 .679 4.885L5.1 10.4c.642.447.717.932.377 1.417l.566.41 1.921-2.644a3.539 3.539 0 0 0-.679-5.108l-3.813-2.76A.972.972 0 0 1 3.208.41L2.642 0z" class="cls-3" transform="translate(6.72 12.342)"></path><path id="XMLID_77_" d="M4.026 0L.855 4.363a5.345 5.345 0 0 0 1.095 7.01l5.247 3.8a2.868 2.868 0 0 1 .415 3.727l.453.336 3.624-5.034a5.229 5.229 0 0 0-1.019-7.42L5.045 2.759A1.669 1.669 0 0 1 4.517.336L4.026 0z" class="cls-3" transform="translate(8.619)"></path><path id="XMLID_76_" d="M0 1.864h4.228L4.983 4.4h6.907l.755-2.535h4.228L16.307 0H.566L0 1.864z" class="cls-3" transform="translate(4.265 25.467)"></path><path id="XMLID_75_" d="M.793.746V.634A.13.13 0 0 0 .755.56.286.286 0 0 0 .642.485C.6.448.566.448.491.411A.187.187 0 0 0 .377.373.132.132 0 0 1 .3.336L.264.3V.15L.3.112A.132.132 0 0 1 .377.075h.114a.227.227 0 0 1 .151.037C.679.15.717.15.755.186L.83.112A.2.2 0 0 0 .679.038.283.283 0 0 0 .491 0H.34C.3 0 .264.038.226.038L.151.112C.151.15.113.186.113.224v.112c0 .037.038.037.038.075a.29.29 0 0 0 .113.074C.3.522.34.522.415.559.453.559.491.6.528.6A.132.132 0 0 1 .6.634a.037.037 0 0 1 .042.038v.074C.642.784.6.858.566.858A.286.286 0 0 1 .377.9.229.229 0 0 1 .226.858C.189.821.151.821.075.784L0 .858C.038.9.113.933.151.97a.344.344 0 0 0 .189.037A.229.229 0 0 0 .491.97C.528.97.566.933.6.9S.642.821.679.821C.793.821.793.783.793.746z" class="cls-3" transform="translate(25.291 39.561)"></path><path id="XMLID_74_" d="M1.019 1.044V0H.906L.642.634A.037.037 0 0 1 .6.672C.6.709.6.709.566.746a.037.037 0 0 1-.038.037.037.037 0 0 0-.037-.037c0-.037 0-.037-.038-.074 0-.038 0-.038-.038-.038L.151 0H0v1.044h.113V.373l.3.672.3-.672v.671z" class="cls-3" transform="translate(26.197 39.561)"></path><path id="XMLID_70_" d="M4.341 9.173H0V0h4.379C5.82 0 7.361.637 7.361 2.424a2.133 2.133 0 0 1-1.209 1.938c1.013.423 1.476.732 1.661 1.9a2.17 2.17 0 0 1-.455 1.789 4.05 4.05 0 0 1-3.017 1.122zM1.963 5.332V7.42h2.529c.9 0 1.373-.537 1.373-1.068a.909.909 0 0 0-.338-.7 1.589 1.589 0 0 0-1.035-.317zm-.038-3.617v1.939H4.3a1.04 1.04 0 0 0 .769-.292.923.923 0 0 0 .256-.648 1.016 1.016 0 0 0-1.1-1h-2.3z" class="cls-3" transform="translate(.075 31.47)"></path><path id="XMLID_64_" d="M4.341 9.173H0V0h4.379C5.82 0 7.361.637 7.361 2.424a2.133 2.133 0 0 1-1.209 1.938c1.013.423 1.476.732 1.661 1.9a2.17 2.17 0 0 1-.455 1.789 4.05 4.05 0 0 1-3.017 1.122zM1.963 5.332V7.42h2.529c.883 0 1.345-.538 1.345-1.069a.916.916 0 0 0-.331-.7 1.535 1.535 0 0 0-1.014-.317zm-.038-3.617v1.939H4.3a1.04 1.04 0 0 0 .769-.292.923.923 0 0 0 .256-.648 1.016 1.016 0 0 0-1.1-1h-2.3z" class="cls-3" transform="translate(8.757 31.47)"></path><path id="XMLID_59_" d="M4.341 9.173H0V0h4.379C5.82 0 7.361.637 7.361 2.424a2.133 2.133 0 0 1-1.209 1.938c1.013.423 1.476.732 1.661 1.9a2.17 2.17 0 0 1-.455 1.789 4.05 4.05 0 0 1-3.017 1.122zM1.963 5.332V7.42h2.529c.883 0 1.345-.538 1.345-1.069a.916.916 0 0 0-.331-.7 1.535 1.535 0 0 0-1.014-.317zm-.038-3.617v1.939H4.3a1.04 1.04 0 0 0 .769-.292.923.923 0 0 0 .256-.648 1.016 1.016 0 0 0-1.1-1h-2.3z" class="cls-3" transform="translate(17.439 31.47)"></path></g><g id="XMLID_67_" transform="translate(9 56)"><path id="XMLID_110_" d="M2.971.665A1.824 1.824 0 0 0 1.638 0 1.738 1.738 0 0 0 .99.117a1.719 1.719 0 0 0-.533.392 1.481 1.481 0 0 0-.343.591A2.335 2.335 0 0 0 0 1.839a2.59 2.59 0 0 0 .114.783 1.481 1.481 0 0 0 .343.587 2.483 2.483 0 0 0 .5.391 1.745 1.745 0 0 0 .648.117 1.753 1.753 0 0 0 1.448-.7l-.533-.47a1.316 1.316 0 0 1-.914.47 1.11 1.11 0 0 1-.381-.078C1.1 2.9 1.029 2.778.952 2.7A1.413 1.413 0 0 1 .8 2.348a1.7 1.7 0 0 1-.076-.431A2.01 2.01 0 0 1 .8 1.448.747.747 0 0 1 .952 1.1a.516.516 0 0 1 .267-.239A1.092 1.092 0 0 1 1.6.783a1.182 1.182 0 0 1 .838.43l.533-.548z" class="cls-3" transform="translate(3.81 .274)"></path><path id="XMLID_109_" d="M2.629 3.6v-.7H.724v-.865h1.524v-.7H.724V.7h1.828V0H0v3.6z" class="cls-3" transform="translate(14.248 .352)"></path><path id="XMLID_106_" d="M1.105 3.6H0V0h1.143a2.171 2.171 0 0 1 .724.078 1.372 1.372 0 0 1 .572.313 1.165 1.165 0 0 1 .381.547 1.783 1.783 0 0 1 .153.861 1.844 1.844 0 0 1-.153.822 1.489 1.489 0 0 1-.418.547 1.792 1.792 0 0 1-.61.314 2.136 2.136 0 0 1-.687.118zM.724.665v2.192h.382a1.869 1.869 0 0 0 .5-.078 1.345 1.345 0 0 0 .343-.235l.005-.008a1.555 1.555 0 0 0 .185-.344 1.436 1.436 0 0 0 .076-.43 1.115 1.115 0 0 0-.272-.823 1.029 1.029 0 0 0-.838-.274z" class="cls-3" transform="translate(17.448 .391)"></path><path id="XMLID_105_" d="M.724 3.6V0H0v3.6z" class="cls-3" transform="translate(21.143 .352)"></path><path id="XMLID_104_" d="M2.857.7V0H0v.7h1.067v2.9h.762V.7z" class="cls-3" transform="translate(22.438 .352)"></path><path id="XMLID_101_" d="M1.105 3.6H0V0h1.143a2.171 2.171 0 0 1 .724.078 1.372 1.372 0 0 1 .571.313 1.165 1.165 0 0 1 .381.547 3.857 3.857 0 0 1 .153.861 1.844 1.844 0 0 1-.153.822 1.489 1.489 0 0 1-.418.547 1.792 1.792 0 0 1-.61.314 2.136 2.136 0 0 1-.686.118zM.724.665v2.192h.382a1.869 1.869 0 0 0 .5-.078 1.345 1.345 0 0 0 .343-.235l.005-.008a1.555 1.555 0 0 0 .185-.344 1.225 1.225 0 0 0 .041-.217 1.965 1.965 0 0 1 .036-.214 1.115 1.115 0 0 0-.273-.822 1.029 1.029 0 0 0-.838-.274z" class="cls-3" transform="translate(29.029 .391)"></path><path id="XMLID_100_" d="M2.629 3.6v-.7H.724v-.865h1.562v-.7H.724V.7h1.828V0H0v3.6z" class="cls-3" transform="translate(25.79 .352)"></path><path id="XMLID_99_" d="M2.629 3.6v-.7H.724V2h1.524v-.67H.724V.7h1.828V0H0v3.6z" class="cls-3" transform="translate(19.619 5.009)"></path><path id="XMLID_98_" d="M2.971.665A1.824 1.824 0 0 0 1.638 0 1.738 1.738 0 0 0 .99.117a1.719 1.719 0 0 0-.533.392 1.481 1.481 0 0 0-.343.591A2.335 2.335 0 0 0 0 1.839a2.59 2.59 0 0 0 .114.783 1.481 1.481 0 0 0 .343.587 2.483 2.483 0 0 0 .5.391 1.745 1.745 0 0 0 .648.117 1.753 1.753 0 0 0 1.448-.7l-.533-.47a1.316 1.316 0 0 1-.914.47 1.11 1.11 0 0 1-.381-.078C1.1 2.9 1.029 2.778.952 2.7A1.413 1.413 0 0 1 .8 2.348a1.7 1.7 0 0 1-.076-.431A2.01 2.01 0 0 1 .8 1.448.747.747 0 0 1 .952 1.1a.516.516 0 0 1 .267-.239A1.092 1.092 0 0 1 1.6.783a1.182 1.182 0 0 1 .838.43l.533-.548z" class="cls-3" transform="translate(7.2 .274)"></path><path id="XMLID_94_" d="M1.638 3.6H0V0h1.638a1.333 1.333 0 0 1 .838.235.875.875 0 0 1 .305.7.8.8 0 0 1-.114.43.609.609 0 0 1-.266.274 1.042 1.042 0 0 1 .343.274 1.171 1.171 0 0 1 .19.508 1.105 1.105 0 0 1-.076.509 1.961 1.961 0 0 0-.051.082.874.874 0 0 1-.216.27.9.9 0 0 1-.418.235 2.143 2.143 0 0 1-.535.083zM.686 1.957V2.9h.952a.553.553 0 0 0 .381-.118.487.487 0 0 0 .114-.352c0-.321-.157-.47-.5-.47zm0-1.291v.665h.99c.152 0 .229 0 .305-.078a.332.332 0 0 0 .076-.235.3.3 0 0 0-.114-.274A.743.743 0 0 0 1.6.666z" class="cls-3" transform="translate(4.267 5.008)"></path><path id="XMLID_93_" d="M2.9 2V0h-.729v2.035a1.141 1.141 0 0 1-.19.665.633.633 0 0 1-.533.235.632.632 0 0 1-.534-.235 1.185 1.185 0 0 1-.19-.7V0H0v2.035a1.942 1.942 0 0 0 .114.7 1.129 1.129 0 0 0 .3.509.971.971 0 0 0 .457.313 1.55 1.55 0 0 0 .61.117 1.413 1.413 0 0 0 1.067-.431A2.1 2.1 0 0 0 2.9 2z" class="cls-3" transform="translate(7.657 5.009)"></path><path id="XMLID_92_" d="M2.781 2.622a.852.852 0 0 0-.114-.47A1.047 1.047 0 0 0 2.4 1.84a1.18 1.18 0 0 0-.381-.2c-.152-.04-.267-.078-.419-.117a1.855 1.855 0 0 0-.343-.078c-.076-.04-.152-.04-.229-.078l-.114-.114C.876 1.213.876 1.174.876 1.1A.146.146 0 0 1 .914.979C.914.94.952.9.99.861s.076-.04.152-.078c.076 0 .152-.039.229-.039a1.884 1.884 0 0 1 .457.078 2.313 2.313 0 0 1 .382.278l.533-.513a2.012 2.012 0 0 0-.571-.43A1.507 1.507 0 0 0 1.448 0a1.883 1.883 0 0 0-.5.078 1.391 1.391 0 0 0-.419.2 1.047 1.047 0 0 0-.262.309.805.805 0 0 0-.114.43 1.239 1.239 0 0 0 .076.431.607.607 0 0 0 .229.313 1.533 1.533 0 0 0 .343.2l.457.117c.152.04.3.078.419.117a.614.614 0 0 1 .229.118l.114.117c.038.039.038.078.038.156A.321.321 0 0 1 1.9 2.9a.809.809 0 0 1-.457.078 1.883 1.883 0 0 1-.5-.078 1.079 1.079 0 0 1-.419-.313L0 3.052a1.7 1.7 0 0 0 .571.47 1.893 1.893 0 0 0 .838.157 3.3 3.3 0 0 0 .648-.079 1.029 1.029 0 0 0 .457-.235 2.159 2.159 0 0 0 .267-.352 1.314 1.314 0 0 1 0-.391z" class="cls-3" transform="translate(11.086 4.891)"></path><path id="XMLID_91_" d="M.724 3.6V0H0v3.6z" class="cls-3" transform="translate(14.438 5.009)"></path><path id="XMLID_90_" d="M2.933 3.639v-3.6H2.21v2.309a.869.869 0 0 1-.114-.2c-.038-.078-.114-.157-.152-.235L.686 0H0v3.6h.724V1.213a.869.869 0 0 1 .114.2c.038.078.114.157.152.235L2.324 3.6h.61z" class="cls-3" transform="translate(15.886 4.97)"></path><path id="XMLID_88_" d="M2.781 2.622a.852.852 0 0 0-.114-.47 1.047 1.047 0 0 0-.267-.313 1.18 1.18 0 0 0-.381-.2c-.152-.04-.267-.078-.419-.117a1.855 1.855 0 0 0-.343-.078c-.076-.04-.152-.04-.229-.078l-.114-.114C.876 1.213.876 1.174.876 1.1A.146.146 0 0 1 .914.978C.914.939.952.9.99.861s.076-.04.152-.078c.076 0 .152-.039.229-.039a1.884 1.884 0 0 1 .457.078 2.313 2.313 0 0 1 .382.278l.533-.513a2.734 2.734 0 0 0-.571-.43A1.507 1.507 0 0 0 1.448 0a1.883 1.883 0 0 0-.5.078 1.391 1.391 0 0 0-.419.2 1.047 1.047 0 0 0-.262.309.805.805 0 0 0-.114.43 1.239 1.239 0 0 0 .076.431.607.607 0 0 0 .229.313 1.533 1.533 0 0 0 .343.2l.457.117c.152.04.3.078.419.117a.614.614 0 0 1 .229.118l.114.117c.038.039.038.078.038.156A.321.321 0 0 1 1.9 2.9a.809.809 0 0 1-.457.078 1.9 1.9 0 0 1-.5-.078 1.079 1.079 0 0 1-.419-.313L0 3.053a1.7 1.7 0 0 0 .571.47 1.893 1.893 0 0 0 .838.157 3.3 3.3 0 0 0 .648-.08 1.029 1.029 0 0 0 .457-.235 2.159 2.159 0 0 0 .267-.352 1.32 1.32 0 0 1 0-.392z" class="cls-3" transform="translate(22.4 4.891)"></path><path id="XMLID_86_" d="M2.781 2.622a.852.852 0 0 0-.114-.47A1.047 1.047 0 0 0 2.4 1.84a1.18 1.18 0 0 0-.381-.2c-.152-.04-.267-.078-.419-.117a1.855 1.855 0 0 0-.343-.078c-.076-.04-.152-.04-.229-.078l-.114-.114C.876 1.213.876 1.174.876 1.1A.146.146 0 0 1 .914.979C.914.94.952.9.99.861s.076-.04.152-.078c.076 0 .152-.039.229-.039a1.884 1.884 0 0 1 .457.078 2.313 2.313 0 0 1 .382.278l.533-.513a2.012 2.012 0 0 0-.571-.43A1.507 1.507 0 0 0 1.448 0a1.883 1.883 0 0 0-.5.078 1.391 1.391 0 0 0-.419.2 1.047 1.047 0 0 0-.262.309.805.805 0 0 0-.114.43 1.239 1.239 0 0 0 .076.431.607.607 0 0 0 .229.313 1.533 1.533 0 0 0 .343.2l.457.117c.152.04.3.078.419.117a.614.614 0 0 1 .229.118l.114.117c.038.039.038.078.038.156A.321.321 0 0 1 1.9 2.9a.809.809 0 0 1-.457.078 1.9 1.9 0 0 1-.5-.078 1.079 1.079 0 0 1-.419-.313L0 3.053a1.7 1.7 0 0 0 .571.47 1.893 1.893 0 0 0 .838.157 3.3 3.3 0 0 0 .648-.08 1.029 1.029 0 0 0 .457-.235 2.159 2.159 0 0 0 .267-.352v-.391z" class="cls-3" transform="translate(25.486 4.891)"></path><path id="XMLID_83_" d="M.8 3.6H0L1.409 0h.724l1.41 3.6h-.8l-.305-.783H1.105L.8 3.6zM1.751.9a.453.453 0 0 1-.035.119c-.012.033-.027.072-.041.116-.019.06-.039.11-.058.159s-.037.1-.056.154l-.229.665h.839l-.229-.665c-.019-.058-.038-.107-.056-.154s-.039-.1-.058-.159A.56.56 0 0 1 1.752.9z" class="cls-3" transform="translate(.114 .352)"></path><path id="XMLID_69_" d="M.724 3.6H0V0h1.714a1.877 1.877 0 0 1 .5.078 1.38 1.38 0 0 1 .419.2.866.866 0 0 1 .267.348 1.108 1.108 0 0 1 .114.508 1.152 1.152 0 0 1-.191.666 1.194 1.194 0 0 1-.609.43l.757 1.37h-.838l-.761-1.252-.648-.04V3.6zM.762.665V1.6h.952c.349 0 .533-.162.533-.47A.5.5 0 0 0 2.1.783a.556.556 0 0 0-.386-.118z" class="cls-3" transform="translate(10.743 .353)"></path></g><path id="XMLID_5_" d="M6.834 32H0L12.389 0h6.8L32 32h-6.99l-2.8-7.259H9.476L6.835 32zm8.933-24.508l-4.311 11.864h8.7z" class="cls-3" transform="translate(55 9)"></path><path id="XMLID_3_" d="M4.487 12V7.536H0V4.464h4.487V0h2.991v4.464H12v3.072H7.478V12z" class="cls-3" transform="translate(83 12)"></path><g id="XMLID_112_" transform="translate(55 44)"><path id="XMLID_113_" d="M.074 3.022c0-1.058 0-2-.074-2.833h1.449L1.486 2h.074a2.7 2.7 0 0 1 2.489-2 1.871 1.871 0 0 1 .483.076v1.586a2.2 2.2 0 0 0-.557-.076A2.327 2.327 0 0 0 1.783 3.74a4.793 4.793 0 0 0-.074.793v4.874H.074z" class="cls-3" transform="translate(.186 3.702)"></path><path id="XMLID_115_" d="M2.749 9.595a2.716 2.716 0 0 1-2.057-.826A2.657 2.657 0 0 1 0 6.951c0-2.193 1.87-3.4 5.265-3.4h.158v-.19A1.843 1.843 0 0 0 3.38 1.247a4.359 4.359 0 0 0-2.34.68L.669.831A5.505 5.505 0 0 1 3.64 0c2.824 0 3.417 2.034 3.417 3.74v3.4a12.8 12.8 0 0 0 .148 2.191H5.683v.037l-.112-1.133H5.5a3.345 3.345 0 0 1-2.751 1.36zM5.17 4.682a6.008 6.008 0 0 0-2.431.406A1.746 1.746 0 0 0 1.6 6.762a1.462 1.462 0 0 0 1.557 1.586 2.264 2.264 0 0 0 2.191-1.511c.014-.069.032-.137.05-.2a1.347 1.347 0 0 0 .062-.325V4.685h-.29z" class="cls-3" transform="translate(4.606 3.665)"></path><path id="XMLID_118_" d="M3.046 0v2.644h2.34v1.247h-2.34V8.84c0 1.133.334 1.776 1.226 1.776A2.794 2.794 0 0 0 5.2 10.5l.074 1.247a4.478 4.478 0 0 1-1.449.227 2.478 2.478 0 0 1-1.783-.68 3.366 3.366 0 0 1-.631-2.38V3.929H0V2.682h1.411V.491z" class="cls-3" transform="translate(12.183 1.247)"></path><path id="XMLID_120_" d="M1.82 12.769H.185V3.627H1.82v9.141zM.966 2.078A.972.972 0 0 1 0 1.058 1.026 1.026 0 0 1 1.04 0a.971.971 0 0 1 .966 1.057 1 1 0 0 1-1.04 1.021z" class="cls-3" transform="translate(18.274 .264)"></path><path id="XMLID_123_" d="M.074 2.682c0-.944 0-1.7-.074-2.456h1.448l.112 1.512h.04A3.31 3.31 0 0 1 4.569 0c1.225 0 3.194.756 3.194 3.891v5.478H6.129V4.08c0-1.473-.557-2.72-2.08-2.72a2.334 2.334 0 0 0-2.191 1.7 2.307 2.307 0 0 0-.111.756v5.515H.111V2.682z" class="cls-3" transform="translate(21.803 3.664)"></path><path id="XMLID_125_" d="M3.789 13.3a5.8 5.8 0 0 1-3.009-.758l.409-1.242a4.978 4.978 0 0 0 2.637.717c1.322 0 2.9-.557 2.9-3.211V7.782h-.04a3.234 3.234 0 0 1-2.86 1.549 3.557 3.557 0 0 1-2.749-1.28A4.888 4.888 0 0 1 0 4.874a5.249 5.249 0 0 1 1.244-3.6A3.755 3.755 0 0 1 4.048 0a3.031 3.031 0 0 1 2.824 1.587h.038l.074-1.4h1.447C8.4.753 8.357 1.524 8.357 2.72v5.289c0 2.072-.413 3.4-1.3 4.193A4.782 4.782 0 0 1 3.789 13.3zm.557-12.053c-1.6 0-2.675 1.4-2.675 3.476 0 2 1.05 3.287 2.675 3.287a2.387 2.387 0 0 0 2.265-1.7 2.548 2.548 0 0 0 .112-.91V3.778h.037a1.608 1.608 0 0 0-.112-.756 2.434 2.434 0 0 0-2.302-1.775z" class="cls-3" transform="translate(30.569 3.702)"></path></g></g></svg> 