<?xml version="1.0" encoding="UTF-8"?> <svg xmlns="http://www.w3.org/2000/svg" id="Microsoft_Partner_2022" data-name="Microsoft Partner 2022" width="187" height="64" viewBox="0 0 187 64"><rect id="Rectangle_482" data-name="Rectangle 482" width="187" height="64" transform="translate(0 0)" fill="#fff"></rect><rect id="Rectangle_483" data-name="Rectangle 483" width="23" height="64" transform="translate(0 0)" fill="#3b2e58"></rect><g id="Group_1468" data-name="Group 1468" transform="translate(6.481 14.837)"><path id="Path_3165" data-name="Path 3165" d="M14.074,74.981a2.2,2.2,0,0,0-.851.152,1.688,1.688,0,0,0-.6.415,1.708,1.708,0,0,0-.359.618,2.413,2.413,0,0,0-.118.77,2.546,2.546,0,0,0,.1.7,3.428,3.428,0,0,0,.267.663,4.121,4.121,0,0,0,.407.622,4.526,4.526,0,0,0,.526.559h-1.3a3.607,3.607,0,0,1-.758-1.144,4.015,4.015,0,0,1-.264-1.543,3.707,3.707,0,0,1,.19-1.207,2.75,2.75,0,0,1,.551-.963,2.552,2.552,0,0,1,.9-.64,3.028,3.028,0,0,1,1.222-.233,4.214,4.214,0,0,1,1.14.144,3.529,3.529,0,0,1,.962.437,4.622,4.622,0,0,1,.867.737,10.507,10.507,0,0,1,.844,1.044q.533.748.91,1.232a5.439,5.439,0,0,0,.707.77,2.045,2.045,0,0,0,.658.4,2.294,2.294,0,0,0,.759.115V73.337h1.088v6.552h-.525a4.389,4.389,0,0,1-1.2-.148,3.1,3.1,0,0,1-.984-.489,5.428,5.428,0,0,1-.933-.892q-.466-.551-1.052-1.351a8.393,8.393,0,0,0-.792-.966,4.09,4.09,0,0,0-.755-.626,2.709,2.709,0,0,0-.766-.337A3.289,3.289,0,0,0,14.074,74.981Z" transform="translate(-11.112 -45.402)" fill="#fff"></path><path id="Path_3166" data-name="Path 3166" d="M16.554,57.041a10.433,10.433,0,0,1,2.362.241,5.477,5.477,0,0,1,1.736.7A3.144,3.144,0,0,1,21.727,59.1a3.07,3.07,0,0,1,.366,1.507,2.864,2.864,0,0,1-.351,1.425,2.981,2.981,0,0,1-1.026,1.055,5.184,5.184,0,0,1-1.655.652,10.269,10.269,0,0,1-2.247.222,11.611,11.611,0,0,1-2.458-.233,5.644,5.644,0,0,1-1.789-.685,3.045,3.045,0,0,1-1.088-1.122,3.143,3.143,0,0,1-.367-1.536Q11.112,57.041,16.554,57.041Zm.119,1.244q-4.532,0-4.532,2.154,0,2.273,4.613,2.273,4.3,0,4.3-2.229Q21.056,58.285,16.673,58.285Z" transform="translate(-11.112 -38.611)" fill="#fff"></path><path id="Path_3167" data-name="Path 3167" d="M14.074,43.049a2.2,2.2,0,0,0-.851.152,1.68,1.68,0,0,0-.6.415,1.7,1.7,0,0,0-.359.618,2.412,2.412,0,0,0-.118.77,2.55,2.55,0,0,0,.1.7,3.408,3.408,0,0,0,.267.663,4.1,4.1,0,0,0,.407.622,4.574,4.574,0,0,0,.526.559h-1.3a3.62,3.62,0,0,1-.758-1.144,4.025,4.025,0,0,1-.264-1.544,3.706,3.706,0,0,1,.19-1.206,2.737,2.737,0,0,1,.551-.962,2.546,2.546,0,0,1,.9-.641,3.018,3.018,0,0,1,1.222-.233,4.168,4.168,0,0,1,1.14.145,3.527,3.527,0,0,1,.962.437,4.622,4.622,0,0,1,.867.737,10.563,10.563,0,0,1,.844,1.043q.533.749.91,1.234a5.464,5.464,0,0,0,.707.77,2.056,2.056,0,0,0,.658.4,2.294,2.294,0,0,0,.759.115V41.4h1.088v6.554h-.525a4.389,4.389,0,0,1-1.2-.148,3.134,3.134,0,0,1-.984-.489,5.478,5.478,0,0,1-.933-.893q-.466-.55-1.052-1.351a8.444,8.444,0,0,0-.792-.966,4.1,4.1,0,0,0-.755-.625,2.713,2.713,0,0,0-.766-.338A3.317,3.317,0,0,0,14.074,43.049Z" transform="translate(-11.112 -32.094)" fill="#fff"></path><path id="Path_3168" data-name="Path 3168" d="M14.074,27.084a2.189,2.189,0,0,0-.851.152,1.679,1.679,0,0,0-.6.414,1.711,1.711,0,0,0-.359.619,2.41,2.41,0,0,0-.118.77,2.55,2.55,0,0,0,.1.7,3.418,3.418,0,0,0,.267.662,4.069,4.069,0,0,0,.407.622,4.486,4.486,0,0,0,.526.559h-1.3a3.611,3.611,0,0,1-.758-1.144,4.022,4.022,0,0,1-.264-1.544,3.711,3.711,0,0,1,.19-1.207,2.747,2.747,0,0,1,.551-.962,2.56,2.56,0,0,1,.9-.64,3.018,3.018,0,0,1,1.222-.233,4.191,4.191,0,0,1,1.14.145,3.51,3.51,0,0,1,.962.437,4.662,4.662,0,0,1,.867.736,10.586,10.586,0,0,1,.844,1.045q.533.748.91,1.233a5.463,5.463,0,0,0,.707.77,2.048,2.048,0,0,0,.658.4,2.325,2.325,0,0,0,.759.115V25.44h1.088v6.552h-.525a4.367,4.367,0,0,1-1.2-.148,3.1,3.1,0,0,1-.984-.489,5.423,5.423,0,0,1-.933-.892q-.466-.552-1.052-1.351a8.454,8.454,0,0,0-.792-.966,4.132,4.132,0,0,0-.755-.626,2.709,2.709,0,0,0-.766-.337A3.29,3.29,0,0,0,14.074,27.084Z" transform="translate(-11.112 -25.44)" fill="#fff"></path></g><g id="Group_1470" data-name="Group 1470" transform="translate(34.993 11.664)"><path id="Path_3169" data-name="Path 3169" d="M93.575,23.63v7H92.359V25.143H92.34l-2.172,5.486h-.805l-2.226-5.486h-.015v5.486H86v-7h1.743l2.011,5.188h.029l2.123-5.188Zm1.017.532a.642.642,0,0,1,.212-.49.716.716,0,0,1,.505-.2.707.707,0,0,1,.517.2.659.659,0,0,1,.2.486.634.634,0,0,1-.209.483.726.726,0,0,1-.513.2.712.712,0,0,1-.51-.2A.639.639,0,0,1,94.591,24.162Zm1.3,1.449v5.017H94.713V25.612Zm3.583,4.158a1.621,1.621,0,0,0,.58-.122,2.467,2.467,0,0,0,.586-.322v1.1a2.362,2.362,0,0,1-.642.244,3.491,3.491,0,0,1-.788.083,2.388,2.388,0,0,1-2.494-2.489,2.86,2.86,0,0,1,.708-1.993,2.563,2.563,0,0,1,2.006-.783,2.758,2.758,0,0,1,.671.085,2.26,2.26,0,0,1,.539.2V26.9a2.423,2.423,0,0,0-.559-.31,1.616,1.616,0,0,0-.583-.11,1.481,1.481,0,0,0-1.127.454,1.71,1.71,0,0,0-.429,1.225,1.629,1.629,0,0,0,.412,1.186A1.488,1.488,0,0,0,99.477,29.77Zm4.529-4.241a1.52,1.52,0,0,1,.254.019,1.13,1.13,0,0,1,.19.049v1.2a1.021,1.021,0,0,0-.271-.129,1.339,1.339,0,0,0-.432-.061.917.917,0,0,0-.735.366,1.757,1.757,0,0,0-.3,1.127v2.533h-1.181V25.612h1.181V26.4h.019a1.386,1.386,0,0,1,.488-.642A1.327,1.327,0,0,1,104.006,25.529Zm.509,2.665a2.716,2.716,0,0,1,.7-1.972,2.588,2.588,0,0,1,1.952-.727,2.407,2.407,0,0,1,1.838.7,3.036,3.036,0,0,1-.041,3.834,2.546,2.546,0,0,1-1.914.722,2.5,2.5,0,0,1-1.852-.686A2.529,2.529,0,0,1,104.514,28.193Zm1.23-.039a1.793,1.793,0,0,0,.356,1.2,1.272,1.272,0,0,0,1.02.415,1.189,1.189,0,0,0,.981-.415,1.918,1.918,0,0,0,.337-1.23,1.85,1.85,0,0,0-.349-1.222,1.21,1.21,0,0,0-.978-.412,1.237,1.237,0,0,0-1.008.432A1.877,1.877,0,0,0,105.744,28.154Zm5.681-1.225a.507.507,0,0,0,.161.4,2.773,2.773,0,0,0,.713.363,2.418,2.418,0,0,1,.993.637,1.32,1.32,0,0,1,.286.857,1.377,1.377,0,0,1-.544,1.137,2.313,2.313,0,0,1-1.472.429,3.531,3.531,0,0,1-.691-.076,3.059,3.059,0,0,1-.642-.192V29.321a2.886,2.886,0,0,0,.693.356,2.027,2.027,0,0,0,.674.132,1.2,1.2,0,0,0,.591-.112.4.4,0,0,0,.19-.376.522.522,0,0,0-.2-.412,2.941,2.941,0,0,0-.749-.388,2.311,2.311,0,0,1-.927-.615,1.344,1.344,0,0,1-.274-.868,1.371,1.371,0,0,1,.539-1.115,2.148,2.148,0,0,1,1.4-.437,3.38,3.38,0,0,1,.591.058,2.6,2.6,0,0,1,.546.152v1.122a2.524,2.524,0,0,0-.546-.268,1.83,1.83,0,0,0-.62-.113.907.907,0,0,0-.525.132A.42.42,0,0,0,111.425,26.93Zm2.66,1.264a2.716,2.716,0,0,1,.7-1.972,2.588,2.588,0,0,1,1.952-.727,2.407,2.407,0,0,1,1.838.7,3.036,3.036,0,0,1-.041,3.834,2.545,2.545,0,0,1-1.914.722,2.5,2.5,0,0,1-1.852-.686A2.527,2.527,0,0,1,114.085,28.193Zm1.23-.039a1.79,1.79,0,0,0,.356,1.2,1.271,1.271,0,0,0,1.02.415,1.19,1.19,0,0,0,.981-.415,1.918,1.918,0,0,0,.337-1.23,1.85,1.85,0,0,0-.349-1.222,1.212,1.212,0,0,0-.979-.412,1.237,1.237,0,0,0-1.008.432A1.88,1.88,0,0,0,115.315,28.154Zm7.843-1.576H121.4v4.051h-1.2V26.578h-.839v-.966h.839v-.7a1.735,1.735,0,0,1,.515-1.3,1.805,1.805,0,0,1,1.32-.505,2.938,2.938,0,0,1,.38.022,1.517,1.517,0,0,1,.293.066v1.02a1.247,1.247,0,0,0-.205-.083,1.059,1.059,0,0,0-.337-.049.715.715,0,0,0-.572.232,1.026,1.026,0,0,0-.2.685v.605h1.76V24.484l1.186-.361v1.488h1.2v.966h-1.2v2.347a.99.99,0,0,0,.169.654.673.673,0,0,0,.53.19.79.79,0,0,0,.247-.049,1.153,1.153,0,0,0,.251-.117v.976a1.371,1.371,0,0,1-.374.117,2.525,2.525,0,0,1-.515.054,1.464,1.464,0,0,1-1.12-.4,1.693,1.693,0,0,1-.373-1.2Z" transform="translate(-70.836 -21.297)" fill="#737373"></path><g id="Group_1469" data-name="Group 1469"><rect id="Rectangle_484" data-name="Rectangle 484" width="5.544" height="5.544" fill="#f25022"></rect><rect id="Rectangle_485" data-name="Rectangle 485" width="5.544" height="5.544" transform="translate(6.121)" fill="#7fba00"></rect><rect id="Rectangle_486" data-name="Rectangle 486" width="5.544" height="5.544" transform="translate(0 6.121)" fill="#00a4ef"></rect><rect id="Rectangle_487" data-name="Rectangle 487" width="5.544" height="5.544" transform="translate(6.121 6.121)" fill="#ffb900"></rect></g></g><g id="Group_1471" data-name="Group 1471" transform="translate(107.974 13.997)"><path id="Path_3170" data-name="Path 3170" d="M191.23,31.175h-1.189l-.588-1.663h-2.57l-.565,1.663h-1.185l2.447-6.534H188.8Zm-2.064-2.547-.907-2.606a3.076,3.076,0,0,1-.086-.41h-.018a2.618,2.618,0,0,1-.092.41l-.9,2.606Z" transform="translate(-185.134 -24.267)" fill="#737373"></path><path id="Path_3171" data-name="Path 3171" d="M200.95,30.908h-1.057v-.793h-.018a1.825,1.825,0,0,1-2.951.276,2.6,2.6,0,0,1-.517-1.707,2.831,2.831,0,0,1,.572-1.854,1.87,1.87,0,0,1,1.524-.7,1.461,1.461,0,0,1,1.372.756h.018V24h1.057Zm-1.043-2.133v-.61a1.191,1.191,0,0,0-.323-.843,1.081,1.081,0,0,0-.825-.346,1.111,1.111,0,0,0-.932.441,1.971,1.971,0,0,0-.339,1.226,1.767,1.767,0,0,0,.325,1.123,1.06,1.06,0,0,0,.877.412,1.1,1.1,0,0,0,.879-.4A1.5,1.5,0,0,0,199.906,28.775Z" transform="translate(-189.832 -24)" fill="#737373"></path><path id="Path_3172" data-name="Path 3172" d="M210.12,27.844l-1.8,4.666h-1.144l-1.718-4.666H206.6l1.034,3.262a3.031,3.031,0,0,1,.146.629h.014a3.38,3.38,0,0,1,.128-.611l1.084-3.281Z" transform="translate(-193.603 -25.602)" fill="#737373"></path><path id="Path_3173" data-name="Path 3173" d="M218.291,30.385h-3.18a1.344,1.344,0,0,0,.4,1,1.482,1.482,0,0,0,1.046.351,2.3,2.3,0,0,0,1.371-.446v.852a3.128,3.128,0,0,1-1.686.4,2.087,2.087,0,0,1-1.616-.636,2.542,2.542,0,0,1-.586-1.788,2.485,2.485,0,0,1,.645-1.775,2.111,2.111,0,0,1,1.6-.686,1.84,1.84,0,0,1,1.481.615,2.557,2.557,0,0,1,.524,1.709Zm-1.021-.747a1.362,1.362,0,0,0-.269-.886.9.9,0,0,0-.729-.317,1.029,1.029,0,0,0-.772.332,1.52,1.52,0,0,0-.39.871Z" transform="translate(-197.181 -25.524)" fill="#737373"></path><path id="Path_3174" data-name="Path 3174" d="M225.762,28.792a.875.875,0,0,0-.551-.15.946.946,0,0,0-.784.424,1.9,1.9,0,0,0-.314,1.153v2.233h-1.057V27.785h1.057v.961h.018a1.627,1.627,0,0,1,.476-.768,1.074,1.074,0,0,1,.717-.276.891.891,0,0,1,.437.087Z" transform="translate(-200.939 -25.543)" fill="#737373"></path><path id="Path_3175" data-name="Path 3175" d="M231.547,31.473a1.832,1.832,0,0,1-.815.155q-1.358,0-1.358-1.3V27.687H228.6v-.829h.779v-1.08l1.057-.3v1.38h1.116v.829h-1.116V30.02a.917.917,0,0,0,.15.592.624.624,0,0,0,.5.178.722.722,0,0,0,.465-.155Z" transform="translate(-203.248 -24.616)" fill="#737373"></path><path id="Path_3176" data-name="Path 3176" d="M235.685,25.3a.635.635,0,0,1-.444-.169.554.554,0,0,1-.184-.428.57.57,0,0,1,.184-.433.628.628,0,0,1,.444-.173.648.648,0,0,1,.455.173.566.566,0,0,1,.187.433.556.556,0,0,1-.187.421A.64.64,0,0,1,235.685,25.3Zm.524,5.646h-1.057V26.284h1.057Z" transform="translate(-205.94 -24.043)" fill="#737373"></path><path id="Path_3177" data-name="Path 3177" d="M238.9,32.286v-.98a2.108,2.108,0,0,0,1.308.451q.956,0,.956-.565a.449.449,0,0,0-.082-.271.8.8,0,0,0-.221-.2,1.776,1.776,0,0,0-.328-.155q-.189-.068-.421-.155a4.389,4.389,0,0,1-.517-.241,1.557,1.557,0,0,1-.383-.289,1.1,1.1,0,0,1-.23-.367,1.347,1.347,0,0,1-.078-.479,1.1,1.1,0,0,1,.16-.594,1.383,1.383,0,0,1,.428-.433,2.041,2.041,0,0,1,.611-.264,2.784,2.784,0,0,1,.706-.089,3.222,3.222,0,0,1,1.157.2v.925a1.951,1.951,0,0,0-1.13-.337,1.467,1.467,0,0,0-.362.041.941.941,0,0,0-.276.114.573.573,0,0,0-.178.175.419.419,0,0,0-.064.226.483.483,0,0,0,.064.255.58.58,0,0,0,.19.184,1.585,1.585,0,0,0,.3.146q.175.066.4.143a5.933,5.933,0,0,1,.539.251,1.825,1.825,0,0,1,.408.289,1.147,1.147,0,0,1,.26.373,1.275,1.275,0,0,1,.091.5,1.151,1.151,0,0,1-.164.619,1.363,1.363,0,0,1-.437.437,2.029,2.029,0,0,1-.631.258,3.291,3.291,0,0,1-.754.084A3.176,3.176,0,0,1,238.9,32.286Z" transform="translate(-207.542 -25.524)" fill="#737373"></path><path id="Path_3178" data-name="Path 3178" d="M246.763,25.3a.635.635,0,0,1-.444-.169.554.554,0,0,1-.184-.428.57.57,0,0,1,.184-.433.628.628,0,0,1,.444-.173.647.647,0,0,1,.455.173.567.567,0,0,1,.187.433.556.556,0,0,1-.187.421A.639.639,0,0,1,246.763,25.3Zm.524,5.646H246.23V26.284h1.057Z" transform="translate(-210.558 -24.043)" fill="#737373"></path><path id="Path_3179" data-name="Path 3179" d="M254.633,32.431h-1.057V29.8q0-1.307-.925-1.308a1.009,1.009,0,0,0-.8.362,1.344,1.344,0,0,0-.314.913v2.661h-1.061V27.766h1.061v.775h.018a1.664,1.664,0,0,1,1.513-.884,1.409,1.409,0,0,1,1.162.495,2.221,2.221,0,0,1,.4,1.428Z" transform="translate(-212.368 -25.524)" fill="#737373"></path><path id="Path_3180" data-name="Path 3180" d="M263.845,32.058a2.277,2.277,0,0,1-2.584,2.57,3.845,3.845,0,0,1-1.59-.305v-.966a2.943,2.943,0,0,0,1.453.437,1.458,1.458,0,0,0,1.663-1.636v-.51h-.018a1.834,1.834,0,0,1-2.951.271,2.515,2.515,0,0,1-.521-1.67,2.946,2.946,0,0,1,.56-1.891,1.864,1.864,0,0,1,1.54-.7,1.485,1.485,0,0,1,1.372.756h.018v-.647h1.057ZM262.8,30.294v-.606a1.189,1.189,0,0,0-.326-.841,1.067,1.067,0,0,0-.813-.348,1.118,1.118,0,0,0-.941.444,2.009,2.009,0,0,0-.339,1.242,1.727,1.727,0,0,0,.326,1.1,1.045,1.045,0,0,0,.864.412,1.12,1.12,0,0,0,.888-.394A1.483,1.483,0,0,0,262.8,30.294Z" transform="translate(-216.044 -25.524)" fill="#737373"></path></g><rect id="Rectangle_488" data-name="Rectangle 488" width="0.875" height="11.664" transform="translate(98.564 11.664)" fill="#d2d2d2"></rect><g id="Group_1472" data-name="Group 1472" transform="translate(36.371 34.993)"><path id="Path_3181" data-name="Path 3181" d="M62.362,77.081V74.825a4.374,4.374,0,0,0,.928.615,7.5,7.5,0,0,0,1.139.461,9.03,9.03,0,0,0,1.2.29,6.711,6.711,0,0,0,1.116.1,4.371,4.371,0,0,0,2.637-.655,2.457,2.457,0,0,0,.581-3.036,3.268,3.268,0,0,0-.8-.894,7.983,7.983,0,0,0-1.213-.775q-.7-.369-1.509-.78-.855-.433-1.6-.877a6.9,6.9,0,0,1-1.287-.98,4.075,4.075,0,0,1-.86-1.213,4.133,4.133,0,0,1,.176-3.531,4.211,4.211,0,0,1,1.287-1.361,5.852,5.852,0,0,1,1.817-.8,8.328,8.328,0,0,1,2.079-.262,7.966,7.966,0,0,1,3.52.581v2.153a6.383,6.383,0,0,0-3.713-1A6.14,6.14,0,0,0,66.611,63a3.572,3.572,0,0,0-1.116.428,2.481,2.481,0,0,0-.8.763,2.03,2.03,0,0,0-.307,1.139,2.352,2.352,0,0,0,.233,1.082,2.654,2.654,0,0,0,.689.832,6.873,6.873,0,0,0,1.11.729q.655.353,1.509.775.877.433,1.663.911a7.588,7.588,0,0,1,1.378,1.06A4.708,4.708,0,0,1,71.913,72a3.611,3.611,0,0,1,.348,1.617,4.1,4.1,0,0,1-.473,2.045,3.877,3.877,0,0,1-1.276,1.361,5.573,5.573,0,0,1-1.851.758,10.171,10.171,0,0,1-2.21.233,9.113,9.113,0,0,1-.957-.062q-.57-.063-1.162-.183a9.4,9.4,0,0,1-1.122-.3A3.47,3.47,0,0,1,62.362,77.081Z" transform="translate(-62.362 -60.472)" fill="#3b2e58"></path><path id="Path_3182" data-name="Path 3182" d="M93.1,75.713H84.86a4.364,4.364,0,0,0,1.048,3.007,3.614,3.614,0,0,0,2.757,1.06,5.729,5.729,0,0,0,3.622-1.3v1.754a6.771,6.771,0,0,1-4.067,1.116,4.929,4.929,0,0,1-3.884-1.589,6.5,6.5,0,0,1-1.413-4.471,6.38,6.38,0,0,1,1.543-4.437A4.951,4.951,0,0,1,88.3,69.141a4.385,4.385,0,0,1,3.542,1.481A6.175,6.175,0,0,1,93.1,74.734ZM91.182,74.13a3.8,3.8,0,0,0-.78-2.517,2.659,2.659,0,0,0-2.136-.9,3.019,3.019,0,0,0-2.244.945,4.293,4.293,0,0,0-1.139,2.472Z" transform="translate(-70.932 -63.81)" fill="#3b2e58"></path><path id="Path_3183" data-name="Path 3183" d="M106.877,77.269h-1.868V60h1.868Z" transform="translate(-80.136 -60)" fill="#3b2e58"></path><path id="Path_3184" data-name="Path 3184" d="M123.3,75.713h-8.236a4.364,4.364,0,0,0,1.048,3.007,3.614,3.614,0,0,0,2.757,1.06,5.729,5.729,0,0,0,3.622-1.3v1.754a6.771,6.771,0,0,1-4.067,1.116,4.929,4.929,0,0,1-3.884-1.589,6.5,6.5,0,0,1-1.413-4.471,6.38,6.38,0,0,1,1.543-4.437,4.951,4.951,0,0,1,3.834-1.714,4.385,4.385,0,0,1,3.542,1.481,6.172,6.172,0,0,1,1.253,4.112Zm-1.914-1.583a3.8,3.8,0,0,0-.78-2.517,2.659,2.659,0,0,0-2.136-.9,3.019,3.019,0,0,0-2.244.945,4.293,4.293,0,0,0-1.139,2.472Z" transform="translate(-83.521 -63.81)" fill="#3b2e58"></path><path id="Path_3185" data-name="Path 3185" d="M142.6,80.543a6.068,6.068,0,0,1-3.19.809,5.28,5.28,0,0,1-4.027-1.623,5.884,5.884,0,0,1-1.532-4.209,6.467,6.467,0,0,1,1.652-4.63,5.778,5.778,0,0,1,4.408-1.748,6.146,6.146,0,0,1,2.711.569v1.914a4.753,4.753,0,0,0-2.78-.911,3.755,3.755,0,0,0-2.933,1.281,4.862,4.862,0,0,0-1.145,3.366,4.63,4.63,0,0,0,1.077,3.235,3.71,3.71,0,0,0,2.888,1.185,4.678,4.678,0,0,0,2.871-1.014Z" transform="translate(-92.156 -63.81)" fill="#3b2e58"></path><path id="Path_3186" data-name="Path 3186" d="M157.9,78.693a3.6,3.6,0,0,1-1.743.365q-3.065,0-3.064-3.417v-6.9h-2v-1.6h2V64.3l1.869-.6v3.451H157.9v1.6h-2.939V75.31a2.722,2.722,0,0,0,.4,1.674,1.59,1.59,0,0,0,1.322.5A1.964,1.964,0,0,0,157.9,77.1Z" transform="translate(-99.342 -61.538)" fill="#3b2e58"></path><path id="Path_3187" data-name="Path 3187" d="M179.946,71.762v6.174h-1.914V61.6h4.488a5.923,5.923,0,0,1,4.06,1.276,4.555,4.555,0,0,1,1.441,3.6,4.95,4.95,0,0,1-1.6,3.8,6.111,6.111,0,0,1-4.323,1.481Zm0-8.429v6.7h2a4.484,4.484,0,0,0,3.025-.906,3.206,3.206,0,0,0,1.042-2.557q0-3.234-3.828-3.235Z" transform="translate(-110.571 -60.668)" fill="#3b2e58"></path><path id="Path_3188" data-name="Path 3188" d="M206.169,81.078H204.3V79.256h-.046a3.911,3.911,0,0,1-3.589,2.1,3.833,3.833,0,0,1-2.728-.923,3.2,3.2,0,0,1-.986-2.449q0-3.268,3.85-3.8l3.5-.489q0-2.974-2.4-2.973a5.743,5.743,0,0,0-3.8,1.435V70.235a7.229,7.229,0,0,1,3.964-1.094q4.112,0,4.112,4.351Zm-1.868-5.9-2.813.387a4.567,4.567,0,0,0-1.96.644,1.856,1.856,0,0,0-.661,1.634,1.781,1.781,0,0,0,.609,1.4,2.354,2.354,0,0,0,1.624.541,3,3,0,0,0,2.295-.974,3.48,3.48,0,0,0,.906-2.466Z" transform="translate(-118.457 -63.81)" fill="#3b2e58"></path><path id="Path_3189" data-name="Path 3189" d="M224.673,71.354a2.284,2.284,0,0,0-1.413-.376,2.385,2.385,0,0,0-2,1.128,5.212,5.212,0,0,0-.8,3.075v5.946H218.59V69.463h1.868v2.4h.046a4.076,4.076,0,0,1,1.219-1.919,2.78,2.78,0,0,1,1.834-.689,3.068,3.068,0,0,1,1.116.159Z" transform="translate(-127.475 -63.859)" fill="#3b2e58"></path><path id="Path_3190" data-name="Path 3190" d="M236.705,78.693a3.6,3.6,0,0,1-1.743.365q-3.065,0-3.064-3.417v-6.9h-2v-1.6h2V64.3l1.868-.6v3.451h2.939v1.6h-2.939V75.31a2.721,2.721,0,0,0,.4,1.674,1.589,1.589,0,0,0,1.321.5,1.963,1.963,0,0,0,1.219-.387Z" transform="translate(-132.186 -61.538)" fill="#3b2e58"></path><path id="Path_3191" data-name="Path 3191" d="M255.333,81.078h-1.868V74.426q0-3.713-2.711-3.713a2.939,2.939,0,0,0-2.318,1.054,3.906,3.906,0,0,0-.917,2.659v6.652H245.65V69.414h1.869v1.937h.045a4.21,4.21,0,0,1,3.827-2.21,3.57,3.57,0,0,1,2.928,1.236,5.505,5.505,0,0,1,1.014,3.571Z" transform="translate(-138.753 -63.81)" fill="#3b2e58"></path><path id="Path_3192" data-name="Path 3192" d="M276.892,75.713h-8.236A4.361,4.361,0,0,0,269.7,78.72a3.613,3.613,0,0,0,2.757,1.06,5.727,5.727,0,0,0,3.622-1.3v1.754a6.769,6.769,0,0,1-4.066,1.116,4.929,4.929,0,0,1-3.884-1.589,6.5,6.5,0,0,1-1.413-4.471,6.38,6.38,0,0,1,1.543-4.437,4.951,4.951,0,0,1,3.834-1.714,4.385,4.385,0,0,1,3.542,1.481,6.175,6.175,0,0,1,1.253,4.112Zm-1.914-1.583a3.8,3.8,0,0,0-.78-2.517,2.66,2.66,0,0,0-2.136-.9,3.019,3.019,0,0,0-2.244.945,4.293,4.293,0,0,0-1.139,2.472Z" transform="translate(-147.534 -63.81)" fill="#3b2e58"></path><path id="Path_3193" data-name="Path 3193" d="M294.888,71.354a2.281,2.281,0,0,0-1.412-.376,2.384,2.384,0,0,0-2,1.128,5.212,5.212,0,0,0-.8,3.075v5.946h-1.868V69.463h1.868v2.4h.045a4.077,4.077,0,0,1,1.219-1.919,2.78,2.78,0,0,1,1.834-.689,3.066,3.066,0,0,1,1.116.159Z" transform="translate(-156.739 -63.859)" fill="#3b2e58"></path></g></svg> 