<?xml version="1.0" encoding="UTF-8"?> <svg xmlns="http://www.w3.org/2000/svg" id="ss-logo" width="208" height="42.992" viewBox="0 0 208 42.992"><defs><style> .cls-1{fill:#f1bc1e}.cls-2{fill:#fff} </style></defs><path id="Path_1989" d="M129.117 20.954c-2.358-.835-4.436-1.41-4.436-2.677v-.087c0-.863.786-1.554 2.274-1.554a12.686 12.686 0 0 1 5.895 2.1l2.358-4.375a14.7 14.7 0 0 0-8.14-2.59c-4.408 0-7.973 2.533-7.973 7.08v.087c0 4.346 3.453 5.814 6.513 6.706 2.414.749 4.52 1.21 4.52 2.59v.087c0 1.008-.815 1.67-2.611 1.67a12.166 12.166 0 0 1-6.878-2.677L118 31.488a15.083 15.083 0 0 0 9.376 3.368c4.716 0 8.338-2.245 8.338-7.225v-.086c0-4.03-3.537-5.555-6.6-6.591zm10.892 13.528h6.176V12.117h-6.176v22.365zm-.14-24.84h6.512V4h-6.513v5.642zm18.948-3.253h-6.176v5.728h-2.61v5.44h2.61V28.15c0 5.182 2.555 6.707 6.345 6.707a8.815 8.815 0 0 0 4.884-1.295v-5.095a6.3 6.3 0 0 1-3.06.806c-1.375 0-1.993-.72-1.993-2.159v-9.556h5.137v-5.44h-5.137V6.389zm18.416 5.3c-6.345 0-10.78 5.268-10.78 11.658v.086c0 6.85 4.856 11.571 11.4 11.571a10.829 10.829 0 0 0 8.927-4.174l-3.54-3.23a7.041 7.041 0 0 1-5.278 2.3 5.083 5.083 0 0 1-5.333-4.375h15.187c.028-.575.084-1.18.084-1.67-.056-6.36-3.4-12.175-10.667-12.175zm-4.745 9.844c.478-2.878 2.162-4.75 4.717-4.75 2.61 0 4.238 1.93 4.6 4.75zm28.943-.575c-2.358-.835-4.436-1.41-4.436-2.677v-.091c0-.863.787-1.554 2.274-1.554a12.693 12.693 0 0 1 5.9 2.1l2.358-4.375a14.707 14.707 0 0 0-8.141-2.59c-4.408 0-7.973 2.533-7.973 7.08v.087c0 4.346 3.453 5.814 6.513 6.706 2.414.749 4.52 1.21 4.52 2.59v.087c0 1.008-.815 1.67-2.611 1.67a12.1 12.1 0 0 1-6.878-2.677l-2.639 4.173a15.071 15.071 0 0 0 9.348 3.368c4.717 0 8.338-2.245 8.338-7.225v-.086c.028-4.03-3.51-5.555-6.57-6.591z" class="cls-1" data-name="Path 1989"></path><path id="Path_1990" d="M11.05 22.34c-2.344-.82-4.409-1.386-4.409-2.63v-.086c0-.848.782-1.527 2.26-1.527a12.7 12.7 0 0 1 5.86 2.065l2.345-4.3a14.742 14.742 0 0 0-8.093-2.545c-4.38 0-7.925 2.49-7.925 6.958v.085c0 4.27 3.433 5.713 6.474 6.59 2.4.735 4.493 1.187 4.493 2.545v.085c0 .99-.81 1.64-2.6 1.64a12.11 12.11 0 0 1-6.837-2.63L0 32.69A15.1 15.1 0 0 0 9.32 36c4.688 0 8.288-2.206 8.288-7.1v-.085c0-3.96-3.516-5.458-6.558-6.477zm36.332-9.108a8.917 8.917 0 0 0-7.115 3.48 6.483 6.483 0 0 0-6.112-3.48c-3.125 0-4.967 1.669-6.39 3.536v-3.111h-6.139v21.975h6.14V23.358c0-2.942 1.422-4.47 3.71-4.47 2.317 0 3.6 1.528 3.6 4.47v12.274h6.14V23.358c0-2.942 1.422-4.47 3.71-4.47 2.317 0 3.6 1.528 3.6 4.47v12.274h6.14v-14.31c.055-5.29-2.707-8.09-7.284-8.09zM93.4 18.069v-4.44h-6.142v22H93.4v-8.114c0-5.26 2.51-7.75 6.585-7.75h.335v-6.533c-3.656-.17-5.665 1.81-6.92 4.837zm22.6.905v-5.346h-5.107V8h-6.139v5.628h-2.6v5.346h2.6V29.41c0 5.091 2.54 6.59 6.307 6.59a8.822 8.822 0 0 0 4.855-1.273v-5.006a6.32 6.32 0 0 1-3.041.792c-1.368 0-1.982-.707-1.982-2.121V19H116v-.028z" class="cls-2" data-name="Path 1990"></path><path id="Path_1991" d="M74.677 32.13a1.055 1.055 0 0 0-.593-.13h-6.222a1.04 1.04 0 0 0-.593.126.837.837 0 0 0-.269.476v.38l7.973 1.553v-1.93c-.027 0-.08-.317-.3-.476zM67 39.506a2.613 2.613 0 0 0 .242.666c.485.7 1.509 2.408 1.509 2.408l.215.254a.721.721 0 0 0 .243.158h3.582a.5.5 0 0 0 .243-.158l.215-.254s.781-1.3 1.293-2.091L67.027 39l-.027.507zm-.27-3.61l9.237 1.67a.9.9 0 0 0 1.015-.781.965.965 0 0 0-.718-1.1l-9.237-1.67a.9.9 0 0 0-1.016.781.945.945 0 0 0 .719 1.104zm9.534 2.204l-9.237-1.67a.9.9 0 0 0-1.016.781.965.965 0 0 0 .719 1.1l9.237 1.67a.957.957 0 0 0 .3-1.885zm3.206-10.4zM71.03 0C62.734 0 56 5.656 56 12.63a10.977 10.977 0 0 0 1.882 6.124h-.03s.09.11.236.33c.118.164.235.329.353.466a63.394 63.394 0 0 1 3.618 5.382 3.5 3.5 0 0 1 .5 2.746c0 .027-.03.027 0 .027a2.081 2.081 0 0 0-.177 1.84 2.52 2.52 0 0 0 .912 1.043 2.3 2.3 0 0 0 .647.3 2.879 2.879 0 0 0 .765.11c.647 0 1.647 0 2.647-.027 1.47-.028 3-.055 3.617-.083.618.028 2.147.055 3.618.083 1.03.027 2.03.027 2.647.027A2.879 2.879 0 0 0 78 30.89a3.9 3.9 0 0 0 .647-.3 2.3 2.3 0 0 0 .912-1.043 2.075 2.075 0 0 0-.177-1.84v-.027a3.359 3.359 0 0 1 .5-2.746 56.129 56.129 0 0 1 3.382-5.052A11.343 11.343 0 0 0 86 12.63C86.058 5.657 79.323 0 71.03 0z" class="cls-1" data-name="Path 1991"></path><path id="Path_1992" d="M80.513 10.949a3.169 3.169 0 0 0-.284-2.662 3.562 3.562 0 0 0-2.242-1.518 2.648 2.648 0 0 0-1.533-1.624 2.545 2.545 0 0 0-2.1.08A2.65 2.65 0 0 0 72.281 4a3.781 3.781 0 0 0-2.158 1.011 2.163 2.163 0 0 0-2.129-.692A3.173 3.173 0 0 0 65.95 6.21a3.161 3.161 0 0 0-2.47.266 1.787 1.787 0 0 0-1.021 1.917 7.3 7.3 0 0 0-2.044 1.837 4.218 4.218 0 0 0-.312 2.662 4.364 4.364 0 0 0 2.98 2.1 2.816 2.816 0 0 0 1.7-.293 3.116 3.116 0 0 1 .852-.426.938.938 0 0 1 .6.213 2.278 2.278 0 0 0 1.22.32 5.185 5.185 0 0 0 1.846-.666 3.969 3.969 0 0 0 1.617 1.36 5.357 5.357 0 0 0 2.214.16 4.119 4.119 0 0 0 1.988 2.157 5.614 5.614 0 0 0 2.895-.027c1.647-.48 2.356-3.088 2.356-3.088A2.716 2.716 0 0 0 81 12.813c.057-1.518-.483-1.864-.483-1.864z" class="cls-2" data-name="Path 1992"></path><path id="Path_1993" d="M78.616 10.7a.41.41 0 0 0-.329.061 1.85 1.85 0 0 0-.6.825 2.575 2.575 0 0 1-.768.367.665.665 0 0 1-.439-.153 2.23 2.23 0 0 0-.329-.4 5.281 5.281 0 0 0-.685-.672 2.5 2.5 0 0 0-.932-.4 2.163 2.163 0 0 1-.247-.887 2.145 2.145 0 0 1 .52-1.008 2.128 2.128 0 0 0 .165-.214 1.143 1.143 0 0 0 .165-.52c-.082-.366-.494-.121-.494-.121a1.948 1.948 0 0 0-.713.61 13.578 13.578 0 0 0-.548 1.315.635.635 0 0 1-.384.366 1.013 1.013 0 0 1-.52-.03 1.992 1.992 0 0 1-.741-.55.936.936 0 0 1-.22-.214 5.944 5.944 0 0 0-.356-.52q-.1-.133-.192-.275l.055-.794a.544.544 0 0 0-.137-.183.345.345 0 0 0-.411-.031c-.22.183-.275.642-.357.917a.306.306 0 0 1-.164.183 3.933 3.933 0 0 1-1.07.306 6.748 6.748 0 0 1-1.316-.031 12.857 12.857 0 0 0-1.07-.794.228.228 0 0 0-.328.091.852.852 0 0 0 .055.49A8.216 8.216 0 0 0 67.21 9.6a2.012 2.012 0 0 1-.165.886 4.144 4.144 0 0 1-.795 1.07s-.521-.58-.987-1.009a5.52 5.52 0 0 0-.713-.58s-.795-.336-.9.092c-.082.336.357.641.357.641a3.066 3.066 0 0 1 .575.428 3.9 3.9 0 0 1 .576.7 7.989 7.989 0 0 0-1.453.244 2.707 2.707 0 0 0-1.1.55 1.851 1.851 0 0 0-.576.825s.165.428.384.428c.274 0 .63-.458.63-.458a2.524 2.524 0 0 1 .878-.55 9.8 9.8 0 0 1 1.618-.153c.439-.03.713-.061.713-.061a5.279 5.279 0 0 0 .6-.58 3.715 3.715 0 0 0 .658-.826 4.777 4.777 0 0 0 .33-1.07c.082-.4.164-.7.164-.7a6.585 6.585 0 0 0 1.179-.061 11.689 11.689 0 0 0 1.317-.277 6.352 6.352 0 0 0 .411.52 5.314 5.314 0 0 0 .412.458 3.168 3.168 0 0 0-.521.794 3.725 3.725 0 0 0-.192.917 10.665 10.665 0 0 0-1.125.275 2.226 2.226 0 0 0-.712.366s-.357.428-.247.642c.164.245.713.214.713.214s.384-.244.63-.367a2.506 2.506 0 0 1 .631-.183s.356.886.658 1.5a4.994 4.994 0 0 0 .357.58s.493.49.52-.152a1.033 1.033 0 0 0-.11-.58 3.5 3.5 0 0 0-.356-.642 7.077 7.077 0 0 1-.246-1.5 1.785 1.785 0 0 1 .274-1.009s.384-.428.768-.4a6.661 6.661 0 0 1 1.508.336c.438.153.767.275.767.275s.357.03.987.733a3.8 3.8 0 0 1 .494.764 1 1 0 0 1 0 .306 1.308 1.308 0 0 1-.11.275 3.945 3.945 0 0 0-1.288.061 1 1 0 0 0-.521.489s-.22.336.082.52a.687.687 0 0 0 .493.03.5.5 0 0 1 .384-.214 1.619 1.619 0 0 1 .686.244.783.783 0 0 1-.082.673 16.958 16.958 0 0 1-1.509 1.71 2.134 2.134 0 0 0-.219.276.473.473 0 0 0 .274.52.669.669 0 0 0 .466-.031s.412-.459.768-.825c.357-.4.63-.673.63-.673a3.354 3.354 0 0 1 .659.52 1.962 1.962 0 0 1 .356.58s.192.459.439.55c.137.062.356-.244.356-.244a1.466 1.466 0 0 0-.082-.794 6.746 6.746 0 0 0-.96-1.07.724.724 0 0 1-.219-.305.8.8 0 0 1 .028-.337 2.613 2.613 0 0 0 .164-.7 1.888 1.888 0 0 0-.082-.7 2.853 2.853 0 0 1 .082-.4 2.388 2.388 0 0 1 .165-.428 3.026 3.026 0 0 0 .822-.367 6.009 6.009 0 0 0 .713-.764 1.344 1.344 0 0 0 .3-.764s-.165-.06-.3-.122z" class="cls-1" data-name="Path 1993" transform="translate(0 -1)"></path></svg> 